<?xml version="1.0" standalone="no"?>
<!DOCTYPE svg PUBLIC "-//W3C//DTD SVG 20010904//EN"
 "http://www.w3.org/TR/2001/REC-SVG-20010904/DTD/svg10.dtd">
<svg version="1.0" xmlns="http://www.w3.org/2000/svg"
 width="700.000000pt" height="700.000000pt" viewBox="0 0 700.000000 700.000000"
 preserveAspectRatio="xMidYMid meet">
<metadata>
Created by potrace 1.14, written by Peter Selinger 2001-2017
</metadata>
<g transform="translate(0.000000,700.000000) scale(0.100000,-0.100000)"
fill="#000000" stroke="none">
<path d="M3440 6978 c-109 -12 -151 -18 -223 -34 -844 -177 -1482 -593 -1877
-1224 -148 -237 -277 -561 -324 -815 -24 -125 -46 -261 -51 -309 -4 -31 -8
-66 -10 -78 -3 -11 -7 -53 -10 -92 -4 -39 -8 -85 -10 -102 -13 -94 -20 -342
-20 -679 0 -331 5 -489 20 -700 12 -170 22 -281 30 -345 2 -19 7 -64 10 -100
3 -36 8 -81 10 -100 2 -19 7 -59 10 -89 4 -30 8 -62 10 -72 2 -10 6 -44 10
-76 3 -32 8 -65 10 -73 2 -8 7 -37 10 -65 16 -141 113 -673 160 -875 2 -8 26
-116 55 -240 66 -289 148 -634 161 -684 10 -37 11 -38 27 -20 9 11 61 69 116
129 155 174 324 334 434 413 56 39 105 72 108 72 4 0 21 10 38 23 44 32 231
126 361 182 199 86 397 153 775 265 54 16 436 121 545 150 149 40 493 159 700
243 311 126 631 305 835 467 24 19 53 42 64 50 49 37 279 272 328 335 103 132
211 317 278 475 48 114 118 338 137 440 2 13 10 53 18 90 17 82 32 194 50 378
22 230 26 698 7 837 -34 257 -154 569 -320 835 -177 284 -427 560 -722 796
-336 270 -699 444 -1125 539 -55 12 -114 25 -150 31 -22 4 -47 8 -55 10 -87
17 -318 24 -420 12z m1150 -1900 c8 -3 31 -8 50 -12 143 -34 364 -189 449
-316 70 -103 112 -224 130 -365 9 -77 8 -232 -3 -285 -3 -14 -11 -49 -17 -79
-23 -114 -95 -246 -170 -317 -48 -44 -162 -129 -249 -186 -174 -112 -240 -154
-385 -240 -749 -445 -1606 -874 -1827 -913 -129 -24 -275 1 -412 69 -96 49
-126 70 -214 151 -115 105 -196 238 -236 386 -19 70 -24 109 -23 218 0 178 17
266 68 368 65 130 196 252 447 416 56 37 105 67 108 67 3 0 18 8 32 19 29 20
431 251 437 251 2 0 28 14 57 31 29 17 86 49 128 71 41 21 98 51 125 66 28 15
113 61 190 101 77 41 165 87 195 104 57 31 115 62 360 190 299 157 489 218
660 212 47 -2 92 -5 100 -7z"/>
<path d="M4246 4643 c-226 -47 -578 -225 -739 -373 -51 -47 -67 -92 -45 -134
17 -32 82 -12 233 72 129 71 190 105 220 124 63 38 236 118 307 141 155 52
256 60 410 35 117 -20 128 -10 51 44 -140 97 -276 125 -437 91z"/>
<path d="M2919 4071 c-89 -45 -314 -185 -539 -334 -245 -164 -329 -255 -360
-393 -10 -44 -15 -267 -7 -304 2 -8 7 -33 12 -55 23 -116 102 -199 285 -297
174 -93 250 -83 562 76 310 158 636 366 668 427 13 23 -5 72 -79 218 -132 262
-391 659 -450 691 -13 7 -37 -1 -92 -29z"/>
</g>
</svg>
